<?xml version="1.0" encoding="UTF-8" standalone="no"?>
<!-- Created with Sodipodi ("http://www.sodipodi.com/") -->

<svg
   xmlns:dc="http://purl.org/dc/elements/1.1/"
   xmlns:cc="http://creativecommons.org/ns#"
   xmlns:rdf="http://www.w3.org/1999/02/22-rdf-syntax-ns#"
   xmlns:svg="http://www.w3.org/2000/svg"
   xmlns="http://www.w3.org/2000/svg"
   xmlns:sodipodi="http://sodipodi.sourceforge.net/DTD/sodipodi-0.dtd"
   xmlns:inkscape="http://www.inkscape.org/namespaces/inkscape"
   version="1.0"
   width="550.000000pt"
   height="200.000000pt"
   viewBox="0 0 550.000000 200.000000"
   preserveAspectRatio="xMidYMid meet"
   id="svg602"
   sodipodi:version="0.34"
   sodipodi:docname="logo.svg"
   inkscape:version="0.91 r13725"
   inkscape:export-filename="logo.png"
   inkscape:export-xdpi="90"
   inkscape:export-ydpi="90">
  <defs
     id="defs613" />
  <sodipodi:namedview
     id="base"
     showgrid="false"
     inkscape:zoom="1.0000001"
     inkscape:cx="413.16559"
     inkscape:cy="69.855268"
     inkscape:window-width="1440"
     inkscape:window-height="849"
     inkscape:window-x="0"
     inkscape:window-y="-1"
     inkscape:window-maximized="1"
     inkscape:current-layer="svg602"
     showguides="false" />
  <metadata
     id="metadata603">
Created by potrace 1.10, written by Peter Selinger 2001-2011
<rdf:RDF>
  <cc:Work
     rdf:about="">
    <dc:format>image/svg+xml</dc:format>
    <dc:type
       rdf:resource="http://purl.org/dc/dcmitype/StillImage" />
    <dc:title />
  </cc:Work>
</rdf:RDF>
</metadata>
  <path
     sodipodi:nodetypes="ccccccccccccccccccc"
     inkscape:connector-curvature="0"
     style="fill:#ffb400;fill-opacity:1;stroke:none"
     id="path605"
     d="m 130.44579,131.67578 c -37.818375,33.98559 -53.445223,-15.06479 -76.489486,-17.31497 -8.744,-0.4 0,0 -0.308,-14.06 -0.557243,-16.736421 13.719893,-98.282822 62.469006,-56.474317 0,0 -54.68138,-89.634801 -85.927321,43.960306 -2.486471,16.437761 3.660421,11.416818 -7.052685,37.109011 14.636788,6.56838 14.799999,5.2 32.598258,23.87996 62.957788,61.51026 105.781948,-55.517901 74.710228,-17.09999 z m 0.88305,46.23658 c 10.18523,-0.37003 50.95479,-17.40273 58.04247,-54.10255 6.28521,-32.271431 4.69508,-66.006391 -9.867,-82.399001 -2.646,-2.508 -5.608,-2.886 -7.824,-1 -7.24348,9.82185 -16.90971,13.54415 -13.249,24.285 11.26054,28.92914 15.57627,45.790481 6.2862,42.962061 -6.30211,-2.41391 -10.70365,-49.445141 -25.32077,-50.102951 -4.205,0 -11.335,3.497 -11.335,5.56 -3.10625,5.22014 -27.07403,23.36759 -24.19706,21.25689 42.04838,-35.146527 25.78111,57.703971 53.92768,34.852151 24.14783,-19.604982 9.3321,38.45993 -33.02685,58.67982" />
  <path
     sodipodi:nodetypes="cccccccc"
     inkscape:connector-curvature="0"
     style="fill:#ffb400;fill-opacity:1;stroke:none"
     id="path606"
     d="m 283.85615,66.360809 c -0.0716,5.23259 3.97816,3.171 3.42716,36.000001 0.42846,5.85526 -2.59763,38.76694 3.701,43 12.1365,-13.97739 17.35421,-7.49741 19.647,-19.691 4.3213,-36.458791 -0.55229,-45.160351 -0.49211,-70.408431 61.05773,7.65939 3.9809,49.952081 1.97211,54.310431 39.81879,-16.44819 53.92951,-58.882651 32.533,-71.775001 -24.20335,-14.206602 -60.7334,21.525796 -60.78816,28.564 z" />
  <path
     style="fill:#ffb400;fill-opacity:1;stroke:none"
     d="m 243.73693,63.234181 c -2.82046,4.315633 -8.39649,-8.604331 -11.50563,-14.772049 -8.00867,-15.450543 -14.71199,-5.648271 -18.82259,-2.271649 -6.16473,4.625499 -7.61323,6.579387 -12.44257,14.057147 25.175,51.80263 -18.5286,117.59195 21.667,71.46478 5.082,-6.8 3.90895,-24.99697 3.25295,-38.97897 -2.34219,-26.679353 -3.81712,-27.83259 4.31681,-19.238583 6.10561,7.943143 5.79009,10.353231 13.57753,-0.03694 6.15862,-7.818852 9.28707,-18.190345 9.54853,24.761591 -0.61346,41.894086 -10.10599,48.813666 8.2391,33.588576 13.70269,-11.85174 15.78576,-26.85461 12.80039,-64.63878 -3.72259,-50.053106 -4.17165,-41.563616 -30.63152,-3.935119 z"
     id="path607"
     inkscape:connector-curvature="0"
     sodipodi:nodetypes="cccccccccccc" />
  <path
     inkscape:export-ydpi="90"
     inkscape:export-xdpi="90"
     inkscape:export-filename="logo.png"
     sodipodi:nodetypes="cccsccccc"
     inkscape:connector-curvature="0"
     style="fill:#ffb400;fill-opacity:1;stroke:none"
     id="path609"
     d="m 444.11658,54.611779 c 1.13438,31.19502 -48.08093,116.362961 12.81996,73.356661 2.10647,-1.67753 15.35568,-5.24916 15.31566,-7.45616 0.0974,-2.39947 -8.93769,0.81244 -12.63038,0.90699 -25.79844,0.6606 -15.92908,-46.636611 -4.01275,-53.244571 21.60494,-11.0317 29.51273,50.845361 23.0485,78.268951 13.15199,-21.89318 28.28913,-11.11109 27.73301,-21.41005 -0.22294,-40.126381 -3.52643,-57.737431 -34.52295,-86.567401 -5.76225,-6.31519 -30.32723,7.06921 -27.75105,16.14558 z" />
  <path
     sodipodi:nodetypes="cccccccccc"
     inkscape:connector-curvature="0"
     style="fill:#ffb400;fill-opacity:1;stroke:none"
     id="path608"
     d="m 379.43331,37.612809 c -3.73491,5.4814 -10.13992,12.81295 -18.33031,13.04211 5.15379,24.02366 -6.60888,75.460581 2.48231,97.305891 8.18164,-34.47084 30.32621,-59.022231 28.155,-42.55 -2.813,24.151 0.20284,55.13284 0.20284,55.13284 6.52728,-15.55992 28.61777,-12.5889 25.86674,-30.72405 -0.48061,-26.13471 17.21321,-73.137481 -4.01711,-77.568501 -6.60896,-0.91784 -12.36331,6.30127 -19.92974,10.652 5.63523,28.99376 -14.71361,41.455691 -8.15278,25.48825 6.12317,-14.94828 2.62312,-65.46176 -6.27695,-50.77854 z" />
  <text
     xml:space="preserve"
     style="font-style:normal;font-weight:normal;font-size:26.5474472px;line-height:125%;font-family:sans-serif;letter-spacing:0px;word-spacing:0px;fill:#ffb400;fill-opacity:1;stroke:none;stroke-width:1px;stroke-linecap:butt;stroke-linejoin:miter;stroke-opacity:1"
     x="477.35394"
     y="54.744125"
     id="text3340"
     sodipodi:linespacing="125%"
     transform="scale(1.0278874,0.9728692)"><tspan
       sodipodi:role="line"
       id="tspan3342"
       x="477.35394"
       y="54.744125">TM</tspan></text>
</svg>
