<?xml version="1.0" encoding="UTF-8" standalone="no"?>
<!-- Created with Sodipodi ("http://www.sodipodi.com/") -->

<svg
   xmlns:dc="http://purl.org/dc/elements/1.1/"
   xmlns:cc="http://creativecommons.org/ns#"
   xmlns:rdf="http://www.w3.org/1999/02/22-rdf-syntax-ns#"
   xmlns:svg="http://www.w3.org/2000/svg"
   xmlns="http://www.w3.org/2000/svg"
   xmlns:sodipodi="http://sodipodi.sourceforge.net/DTD/sodipodi-0.dtd"
   xmlns:inkscape="http://www.inkscape.org/namespaces/inkscape"
   version="1.0"
   width="550.000000pt"
   height="200.000000pt"
   viewBox="0 0 550.000000 200.000000"
   preserveAspectRatio="xMidYMid meet"
   id="svg602"
   sodipodi:version="0.34"
   sodipodi:docname="logo.svg"
   inkscape:version="0.91 r13725"
   inkscape:export-filename="logo.png"
   inkscape:export-xdpi="90"
   inkscape:export-ydpi="90">
  <defs
     id="defs613" />
  <sodipodi:namedview
     id="base"
     showgrid="false"
     inkscape:zoom="8.0000005"
     inkscape:cx="121.37996"
     inkscape:cy="38.938084"
     inkscape:window-width="1440"
     inkscape:window-height="849"
     inkscape:window-x="0"
     inkscape:window-y="-1"
     inkscape:window-maximized="1"
     inkscape:current-layer="svg602"
     showguides="false" />
  <metadata
     id="metadata603">
Created by potrace 1.10, written by Peter Selinger 2001-2011
<rdf:RDF>
  <cc:Work
     rdf:about="">
    <dc:format>image/svg+xml</dc:format>
    <dc:type
       rdf:resource="http://purl.org/dc/dcmitype/StillImage" />
    <dc:title></dc:title>
  </cc:Work>
</rdf:RDF>
</metadata>
  <path
     sodipodi:nodetypes="cccccccccccccccscccccccccccccc"
     inkscape:connector-curvature="0"
     style="fill:#ffb400;fill-opacity:1;stroke:none"
     id="path605"
     d="M 114.41248,148.31497 C 70.088729,189.65447 56.567263,129.25018 33.523,127 c -7.144,0 -8.034,-1.734 -3.108,-6.06 6.898,-6.056 8.666,-14.362 5.521,-25.94 1.421572,-49.10557 34.325164,-53.18469 51.016629,-45.9 15.223431,8.4715 13.149441,28.70732 13.375801,33.79411 l 7.555,-7.585 C 129.4265,47.10729 101.97378,11.00368 70.678864,29.41127 21.271935,66.16235 11.933942,68.97241 10.956685,103.62599 c 0.442884,10.41228 3.962456,16.90376 2.908315,22.49201 -1.085,5.009 -7.127,13.876 -9.961,14.617 -2.177,0.57 -2.646,4.766 -0.619,5.544 0.707,0.271 2.614,0.347 4.238,0.169 7.205842,-0.15962 14.715177,3.10946 18.346,7.482 2.065,2.513 4.988,7.467 6.496,11.008 C 40.295,183.561 55.609,194 75,194 c 4.981439,0 31.11871,-3.90757 49.72372,-27.21002 12.23634,-50.2651 9.53091,-41.02287 -10.31124,-18.47501 z m -2.31695,45.43658 c 10.18523,-0.37003 53.35479,-19.80273 60.44247,-56.50255 6.28521,-32.27143 2.29508,-63.60639 -12.267,-79.999 -2.646,-2.508 -5.608,-2.886 -7.824,-1 -7.24348,9.82185 -16.90971,13.54415 -13.249,24.285 11.26054,28.92914 12.37627,31.39048 3.0862,28.56206 -6.30211,-2.41391 -7.50365,-35.04514 -22.12077,-35.70295 -4.205,0 -11.335,3.497 -11.335,5.56 -3.10625,5.22014 -27.074024,23.36759 -24.197059,21.25689 34.526749,-30.88694 28.364499,31.08644 38.014719,30.84673 6.33902,0.1705 16.40798,-9.35118 19.11296,-12.79458 14.54783,-14.80498 13.3321,53.65993 -29.02685,73.87982" />
  <path
     sodipodi:nodetypes="csccccccc"
     inkscape:connector-curvature="0"
     style="fill:#ffb400;fill-opacity:1;stroke:none"
     id="path606"
     d="m 275,86.43 c 0,0.314 0.732,0.57 1.627,0.57 1.484,0 1.574,3.171 1.023,36 0.42846,5.85526 -2.59763,38.76694 3.701,43 12.1365,-13.97739 17.35421,-7.49741 19.647,-19.691 4.3213,-36.45879 -0.55229,-45.16035 -0.49211,-70.40843 61.05773,7.65939 12.7809,56.35208 10.77211,60.71043 39.81879,-16.44819 45.12951,-65.28265 23.733,-78.175 C 307.02427,43.57759 283.34706,72.7104 275,86.43 Z" />
  <path
     sodipodi:nodetypes="ccccccscccscsccccccccccc"
     inkscape:connector-curvature="0"
     style="fill:#ffb400;fill-opacity:1;stroke:none"
     id="path607"
     d="m 173.724,76.215 c 13.64131,20.98082 3.64965,65.02434 7.932,92.785 6.53329,-2.15829 14.39656,-14.58021 20.232,-15 3.882,0 4.407,-2.277 3.751,-16.259 -1.977,-42.099 -1.962,-40.922 -0.523,-41.834 2.781,-1.761 4.854,-0.914 6.314,2.58 2.184,5.227 3.569,20.415 3.577,39.224 0.012,27.986 1.382,35.008 5.085,26.067 1.985,-4.793 7.382,-9.593 11.643,-10.357 7.359,-1.318 7.15,-0.355 6.618,-30.573 C 237.848,94.133 238.007,93 242.551,93 c 4.262,0 5.491,2.468 5.397,10.838 -0.074,6.582 0.351,31.788 0.892,52.912 0.12,4.684 0.519,6.25 1.593,6.25 6.473,-5.20937 5.04905,-9.9546 14.96,-10 6.917,0 8.587,-1.3 6.555,-5.098 -0.637,-1.189 -1.209,-14.358 -1.463,-33.677 C 270.256,96.776 269.807,80.7 269.488,78.5 266.38121,54.3448 250.88595,50.66022 242.8,72.857 231.83416,102.88696 247.19933,56.93771 227.18817,60.15147 217.47757,62.17888 209.17082,78.2078 204.084,87.5 c -1.25342,-7.23481 -1.68632,-20.30272 -4.13,-26 -0.85772,-2.7297 -1.67085,-3.38745 -3.956,-3.964 -8.14463,1.51423 -17.44466,11.20124 -22.274,18.679 z" />
  <path
     inkscape:export-ydpi="90"
     inkscape:export-xdpi="90"
     inkscape:export-filename="logo.png"
     sodipodi:nodetypes="cccsccccc"
     inkscape:connector-curvature="0"
     style="fill:#ffb400;fill-opacity:1;stroke:none"
     id="path609"
     d="m 431.28327,72.05097 c 1.13438,31.19502 -48.08093,116.36296 12.81996,73.35666 2.10647,-1.67753 15.35568,-5.24916 15.31566,-7.45616 0.0974,-2.39947 -8.93769,0.81244 -12.63038,0.90699 -25.79844,0.6606 -15.92908,-46.63661 -4.01275,-53.24457 21.60494,-11.0317 29.51273,50.84536 23.0485,78.26895 13.15199,-21.89318 28.28913,-11.11109 27.73301,-21.41005 -0.22294,-40.12638 -3.52643,-57.73743 -34.52295,-86.5674 -5.76225,-6.31519 -30.32723,7.06921 -27.75105,16.14558 z" />
  <path
     sodipodi:nodetypes="cccccccccc"
     inkscape:connector-curvature="0"
     style="fill:#ffb400;fill-opacity:1;stroke:none"
     id="path608"
     d="m 369.8,58.252 c -3.73491,5.4814 -10.13992,12.81295 -18.33031,13.04211 5.15379,24.02366 -6.60888,75.46058 2.48231,97.30589 8.18164,-34.47084 30.32621,-59.02223 28.155,-42.55 -2.813,24.151 0.20284,55.13284 0.20284,55.13284 6.52728,-15.55992 29.41777,-17.3889 25.86674,-30.72405 -4.48061,-21.33471 17.21321,-73.13748 -4.01711,-77.5685 -6.60896,-0.91784 -12.36331,6.30127 -19.92974,10.652 9.17493,26.07244 -14.71361,41.45569 -8.15278,25.48825 C 382.20012,94.08226 378.70007,43.56878 369.8,58.252 Z" />
  <text
     xml:space="preserve"
     style="font-style:normal;font-weight:normal;font-size:26.5474472px;line-height:125%;font-family:sans-serif;letter-spacing:0px;word-spacing:0px;fill:#ffb400;fill-opacity:1;stroke:none;stroke-width:1px;stroke-linecap:butt;stroke-linejoin:miter;stroke-opacity:1"
     x="481.90497"
     y="78.986618"
     id="text3340"
     sodipodi:linespacing="125%"
     transform="scale(1.0278874,0.9728692)"><tspan
       sodipodi:role="line"
       id="tspan3342"
       x="481.90497"
       y="78.986618">TM</tspan></text>
</svg>
