<?xml version="1.0" encoding="UTF-8" standalone="no"?>
<svg
   xmlns:dc="http://purl.org/dc/elements/1.1/"
   xmlns:cc="http://creativecommons.org/ns#"
   xmlns:rdf="http://www.w3.org/1999/02/22-rdf-syntax-ns#"
   xmlns:svg="http://www.w3.org/2000/svg"
   xmlns="http://www.w3.org/2000/svg"
   id="svg602"
   preserveAspectRatio="xMidYMid meet"
   viewBox="0 0 550.000000 200.000000"
   height="200.000000pt"
   width="550.000000pt"
   version="1.0">
  <defs
     id="defs613" />
  <metadata
     id="metadata603">
Created by potrace 1.10, written by Peter Selinger 2001-2011
<rdf:RDF>
  <cc:Work
     rdf:about="">
    <dc:format>image/svg+xml</dc:format>
    <dc:type
       rdf:resource="http://purl.org/dc/dcmitype/StillImage" />
    <dc:title></dc:title>
  </cc:Work>
</rdf:RDF>
</metadata>
  <path
     d="m 133.8399,131.39294 c -37.818373,33.98559 -53.445221,-7.14519 -76.489484,-9.39537 -8.744,-0.4 0,0 -0.308,-14.06 C 56.085173,81.401142 67.299568,24.523367 105.64868,46.531875 73.309642,18.401905 47.362034,34.549281 36.650684,61.062889 27.711761,83.189242 31.812438,124.60647 20.794158,137.19531 c 0,0 18.337257,1.01766 36.735516,17.69762 38.753847,33.23063 77.309346,6.99998 80.143956,-14.53542 3.58039,-27.20136 5.62076,-19.67992 -3.83373,-8.96457 z m 19.28305,42.23658 c 40.19689,-26.04513 51.69442,-69.02784 35.52105,-114.213836 -3.21168,-7.882011 -8.95358,-20.373718 -11.16958,-18.487718 -7.24348,9.82185 -16.10971,15.94415 -12.449,26.685 13.24044,36.848734 5.95233,46.735984 -3.13634,30.993946 -5.70469,-11.453621 -22.28498,-49.916114 -33.5445,-30.683668 -3.10625,5.22014 -20.56865,19.973478 -17.69168,17.862778 31.86605,-21.287235 27.02073,54.571488 53.64484,29.760988 7.32516,-6.43866 20.93516,-20.851103 15.8421,-7.55636 -4.09764,10.69633 -37.04069,72.90879 -82.380219,78.43029"
     id="path605"
     style="fill:#ffb400;fill-opacity:1;stroke:none" />
  <path
     d="m 283.85615,66.360809 c -0.0716,5.23259 3.97816,3.171 3.42716,36.000001 0.42846,5.85526 -2.59763,38.76694 3.701,43 12.1365,-13.97739 17.35421,-7.49741 19.647,-19.691 4.3213,-36.458791 -0.55229,-45.160351 -0.49211,-70.408431 61.05773,7.65939 3.9809,49.952081 1.97211,54.310431 39.81879,-16.44819 53.92951,-58.882651 32.533,-71.775001 -24.20335,-14.206602 -60.7334,21.525796 -60.78816,28.564 z"
     id="path606"
     style="fill:#ffb400;fill-opacity:1;stroke:none" />
  <path
     id="path607"
     d="m 239.33693,75.23418 c -2.82046,4.315633 -10.39649,-18.20433 -13.50563,-24.372048 -8.00867,-15.450543 -14.71199,-5.648271 -18.82259,-2.271649 -6.16473,4.625499 -7.61323,6.579387 -12.44257,14.057147 25.175,51.80263 -18.5286,117.59195 21.667,71.46478 5.082,-6.8 3.90895,-24.99697 3.25295,-38.97897 -2.34219,-26.679353 -2.41712,-14.032592 4.91681,-4.038585 6.10561,7.943143 8.79009,7.953231 16.77753,-4.43694 9.15862,-16.218851 9.36991,-23.82222 9.34853,10.361593 -0.61346,41.894082 -13.70599,59.813662 4.6391,44.588572 13.70269,-11.85174 21.38576,-29.05461 18.40039,-66.838777 -3.72259,-50.053106 -7.77165,-37.163616 -34.23152,0.464877 z"
     style="fill:#ffb400;fill-opacity:1;stroke:none" />
  <path
     id="path609"
     d="m 474.70012,39.16647 c -8.76009,0.251378 -28.54471,11.791075 -26.45157,19.165625 -9.66561,60.395015 -36.44782,97.745895 -5.94693,76.339595 10.56408,-6.4 30.55564,-13.64925 30.51562,-15.85625 0.0974,-2.39947 -5.54382,-2.53728 -9.62969,-4.8937 -8.68013,-5.00604 -17.16313,-32.419135 -6.4468,-37.827095 4.41082,-1.851801 7.47002,-9.21169 26.28275,67.452095 13.15198,-21.89318 24.48892,-9.91041 23.9328,-20.20937 0,0 4.03877,5.87786 -28.35775,-82.3521 -0.44292,-1.334098 -3.89843,0.203643 -3.89843,-1.81875 z"
     style="fill:#ffb400;fill-opacity:1;stroke:none" />
  <path
     d="m 379.43331,37.612809 c -3.73491,5.4814 -10.13992,12.81295 -18.33031,13.04211 5.15379,24.02366 -6.60888,75.460581 2.48231,97.305891 8.18164,-34.47084 30.32621,-59.022231 28.155,-42.55 -2.813,24.151 0.20284,55.13284 0.20284,55.13284 6.52728,-15.55992 28.61777,-12.5889 25.86674,-30.72405 -0.48061,-26.13471 17.21321,-73.137481 -4.01711,-77.568501 -6.60896,-0.91784 -10.56331,3.70127 -17.12974,11.252 2.03523,29.59376 -17.51361,40.855691 -10.95278,24.88825 6.12317,-14.94828 2.62312,-65.46176 -6.27695,-50.77854 z"
     id="path608"
     style="fill:#ffb400;fill-opacity:1;stroke:none" />
  <text
     transform="scale(1.0278874,0.9728692)"
     id="text3340"
     y="62.884579"
     x="478.45462"
     style="font-style:normal;font-weight:normal;font-size:26.5474472px;line-height:125%;font-family:sans-serif;letter-spacing:0px;word-spacing:0px;fill:#ffb400;fill-opacity:1;stroke:none;stroke-width:1px;stroke-linecap:butt;stroke-linejoin:miter;stroke-opacity:1"
     xml:space="preserve"><tspan
       y="62.884579"
       x="478.45462"
       id="tspan3342">TM</tspan></text>
</svg>
