<?xml version="1.0" encoding="UTF-8" standalone="no"?>
<!-- Created with Sodipodi ("http://www.sodipodi.com/") -->

<svg
   xmlns:dc="http://purl.org/dc/elements/1.1/"
   xmlns:cc="http://creativecommons.org/ns#"
   xmlns:rdf="http://www.w3.org/1999/02/22-rdf-syntax-ns#"
   xmlns:svg="http://www.w3.org/2000/svg"
   xmlns="http://www.w3.org/2000/svg"
   xmlns:sodipodi="http://sodipodi.sourceforge.net/DTD/sodipodi-0.dtd"
   xmlns:inkscape="http://www.inkscape.org/namespaces/inkscape"
   version="1.0"
   width="550.000000pt"
   height="200.000000pt"
   viewBox="0 0 550.000000 200.000000"
   preserveAspectRatio="xMidYMid meet"
   id="svg602"
   sodipodi:version="0.34"
   sodipodi:docname="logo.svg"
   inkscape:version="0.91 r13725"
   inkscape:export-filename="logo.png"
   inkscape:export-xdpi="90"
   inkscape:export-ydpi="90">
  <defs
     id="defs613" />
  <sodipodi:namedview
     id="base"
     showgrid="false"
     inkscape:zoom="2.8284274"
     inkscape:cx="213.87624"
     inkscape:cy="107.98318"
     inkscape:window-width="1440"
     inkscape:window-height="849"
     inkscape:window-x="0"
     inkscape:window-y="-1"
     inkscape:window-maximized="1"
     inkscape:current-layer="svg602"
     showguides="false" />
  <metadata
     id="metadata603">
Created by potrace 1.10, written by Peter Selinger 2001-2011
<rdf:RDF>
  <cc:Work
     rdf:about="">
    <dc:format>image/svg+xml</dc:format>
    <dc:type
       rdf:resource="http://purl.org/dc/dcmitype/StillImage" />
    <dc:title />
  </cc:Work>
</rdf:RDF>
</metadata>
  <path
     sodipodi:nodetypes="cscccssccscccccccscccsc"
     inkscape:connector-curvature="0"
     style="fill:#ffb400;fill-opacity:1;stroke:none"
     id="path605"
     d="m 130.72863,130.26157 c -9.18263,11.30647 -17.47261,15.10071 -25.21967,14.86542 -17.477477,-0.53082 -32.191728,-21.57032 -48.158544,-23.12942 -8.744,-0.4 0,0 -0.308,-14.06 C 56.085173,81.401142 67.299568,24.523367 105.64868,46.531875 87.895703,31.089526 76.068859,38.196124 63.631408,44.918026 53.412647,50.440823 41.481885,53.104304 36.650684,65.062889 27.711761,87.189241 31.812438,124.60647 20.794158,137.19531 c 0,0 18.337257,1.01766 36.735516,17.69762 38.753847,33.23063 63.895856,2.34881 68.547416,-11.1413 z m 31.99432,35.36795 c 40.19689,-26.04513 36.82579,-51.2053 31.85242,-99.591297 -0.81168,-9.082011 -5.28495,-32.996256 -7.50095,-31.110256 -7.24348,9.82185 -20.37245,16.247093 -18.71174,27.787943 7.24044,39.24873 3.4636,48.23893 -5.6251,32.49689 -5.70469,-11.453621 -32.2531,-52.593069 -52.28074,-44.957173 0,0 0.94843,-2.94657 4.28814,9.280773 1.75851,6.438243 0.44759,18.592769 0.44759,18.592769 7.24755,0.616035 14.07931,3.270042 18.93249,18.99135 9.06588,24.219811 38.32172,7.873401 37.61475,14.070131 -0.98948,10.54913 -1.51553,28.84604 -9.35195,40.94237 -12.36563,19.08765 -19.27604,17.65983 -42.62827,29.88792" />
  <path
     sodipodi:nodetypes="cccccccc"
     inkscape:connector-curvature="0"
     style="fill:#ffb400;fill-opacity:1;stroke:none"
     id="path606"
     d="m 290.25615,62.36081 c -0.0716,5.23259 4.77816,9.570999 4.22716,42.4 0.42846,5.85526 -2.59763,38.76694 3.701,43 12.1365,-13.97739 17.35421,-7.49741 19.647,-19.691 4.3213,-36.458791 -0.55229,-45.160351 -0.49211,-70.408431 61.05773,7.65939 3.9809,49.952081 1.97211,54.310431 39.81879,-16.44819 53.92951,-58.882651 32.533,-71.775001 -24.20335,-14.206602 -61.5334,15.125797 -61.58816,22.164001 z" />
  <path
     style="fill:#ffb400;fill-opacity:1;stroke:none"
     d="m 246.53693,74.43418 c -2.82046,4.315633 -10.39649,-22.20433 -13.50563,-28.372048 -12.52726,-20.170295 -25.97501,7.452786 -31.26516,15.785498 25.175,51.80263 -18.5286,117.59195 21.667,71.46478 5.082,-6.8 3.90895,-24.99697 3.25295,-38.97897 -2.34219,-26.679353 -2.41712,-14.032592 4.91681,-4.038585 6.10561,7.943143 8.79009,7.953231 16.77753,-4.43694 9.15862,-16.218851 9.36991,-23.82222 9.34853,10.361593 -0.61346,41.894082 -13.70599,59.813662 4.6391,44.588572 13.70269,-11.85174 21.38576,-29.05461 18.40039,-66.838777 -3.72259,-58.053105 -2.17165,-48.363615 -34.23152,0.464877 z"
     id="path607"
     inkscape:connector-curvature="0"
     sodipodi:nodetypes="ccccccccccc" />
  <path
     style="fill:#ffb400;fill-opacity:1;stroke:none"
     d="m 455.44855,56.732095 c -9.66561,60.395015 -36.44782,100.574325 -5.94693,79.168025 10.56408,-6.4 30.55564,-13.64925 30.51562,-15.85625 0.0974,-2.39947 -5.54382,-2.53728 -9.62969,-4.8937 -8.68013,-5.00604 -17.16313,-35.247565 -6.4468,-40.655525 4.41082,-1.851801 7.47002,-6.383263 26.28275,70.280525 13.15198,-21.89318 24.48892,-9.91041 23.9328,-20.20937 0,0 4.03877,1.63522 -28.35775,-86.594743 -5.7886,-5.313881 -31.76144,10.602893 -30.35,18.761038 z"
     id="path609"
     inkscape:connector-curvature="0"
     sodipodi:nodetypes="cccsccccc" />
  <path
     sodipodi:nodetypes="cccccccccc"
     inkscape:connector-curvature="0"
     style="fill:#ffb400;fill-opacity:1;stroke:none"
     id="path608"
     d="m 386.63331,35.955955 c -3.73491,5.4814 -7.87718,13.378636 -18.896,19.264649 5.15379,24.02366 -6.04319,74.894896 3.048,96.740206 8.18164,-34.47084 30.32621,-59.022231 28.155,-42.55 -2.813,24.151 0.20284,55.13284 0.20284,55.13284 6.52728,-15.55992 28.61777,-12.5889 25.86674,-30.72405 -0.48061,-26.13471 17.21321,-73.137481 -4.01711,-77.568501 -6.60896,-0.91784 -10.56331,3.70127 -17.12974,11.252 2.03523,29.59376 -17.51361,40.855691 -10.95278,24.88825 6.12317,-14.94828 2.62312,-71.118614 -6.27695,-56.435394 z" />
  <text
     xml:space="preserve"
     style="font-style:normal;font-weight:normal;font-size:26.5474472px;line-height:125%;font-family:sans-serif;letter-spacing:0px;word-spacing:0px;fill:#ffb400;fill-opacity:1;stroke:none;stroke-width:1px;stroke-linecap:butt;stroke-linejoin:miter;stroke-opacity:1"
     x="485.45929"
     y="62.062267"
     id="text3340"
     sodipodi:linespacing="125%"
     transform="scale(1.0278874,0.9728692)"><tspan
       sodipodi:role="line"
       id="tspan3342"
       x="485.45929"
       y="62.062267">TM</tspan></text>
</svg>
