<?xml version="1.0" encoding="UTF-8" standalone="no"?>
<!-- Created with Sodipodi ("http://www.sodipodi.com/") -->

<svg
   xmlns:dc="http://purl.org/dc/elements/1.1/"
   xmlns:cc="http://creativecommons.org/ns#"
   xmlns:rdf="http://www.w3.org/1999/02/22-rdf-syntax-ns#"
   xmlns:svg="http://www.w3.org/2000/svg"
   xmlns="http://www.w3.org/2000/svg"
   xmlns:sodipodi="http://sodipodi.sourceforge.net/DTD/sodipodi-0.dtd"
   xmlns:inkscape="http://www.inkscape.org/namespaces/inkscape"
   version="1.0"
   width="550.000000pt"
   height="200.000000pt"
   viewBox="0 0 550.000000 200.000000"
   preserveAspectRatio="xMidYMid meet"
   id="svg602"
   sodipodi:version="0.34"
   sodipodi:docname="logo.svg"
   inkscape:version="0.91 r13725"
   inkscape:export-filename="logo.png"
   inkscape:export-xdpi="90"
   inkscape:export-ydpi="90">
  <defs
     id="defs613" />
  <sodipodi:namedview
     id="base"
     showgrid="false"
     inkscape:zoom="2.0000002"
     inkscape:cx="82.665959"
     inkscape:cy="76.644876"
     inkscape:window-width="1440"
     inkscape:window-height="849"
     inkscape:window-x="0"
     inkscape:window-y="-1"
     inkscape:window-maximized="1"
     inkscape:current-layer="svg602"
     showguides="false" />
  <metadata
     id="metadata603">
Created by potrace 1.10, written by Peter Selinger 2001-2011
<rdf:RDF>
  <cc:Work
     rdf:about="">
    <dc:format>image/svg+xml</dc:format>
    <dc:type
       rdf:resource="http://purl.org/dc/dcmitype/StillImage" />
    <dc:title></dc:title>
  </cc:Work>
</rdf:RDF>
</metadata>
  <path
     sodipodi:nodetypes="ccccsccscccccccscccc"
     inkscape:connector-curvature="0"
     style="fill:#ffb400;fill-opacity:1;stroke:none"
     id="path605"
     d="m 130.72863,130.26157 c -29.89878,36.81402 -50.333951,-6.01382 -73.378214,-8.264 -8.744,-0.4 0,0 -0.308,-14.06 C 56.085173,81.401142 67.299568,24.523367 105.64868,46.531875 73.309642,18.401905 47.362034,34.549281 36.650684,61.062889 27.711761,83.189242 31.812438,124.60647 20.794158,137.19531 c 0,0 18.337257,1.01766 36.735516,17.69762 38.753847,33.23063 82.618196,8.47943 81.558176,-16.23247 -1.64638,-38.38131 4.20653,-27.59952 -8.35922,-8.39889 z m 22.39432,43.36795 c 40.19689,-26.04513 51.69442,-69.02784 35.52105,-114.213836 -3.21168,-7.882011 -8.95358,-20.373718 -11.16958,-18.487718 -7.24348,9.82185 -18.37245,14.247094 -14.71174,24.987944 13.24044,36.84873 9.0636,45.03893 -0.0251,29.29689 -5.70469,-11.453621 -31.0531,-53.593069 -51.08074,-45.957173 -1.29231,2.171753 4.33521,4.356438 5.70235,16.957728 1.0514,9.690934 -1.61515,15.047184 -1.61515,15.047184 5.55049,-2.495235 14.92784,3.538672 21.58102,18.65998 16.06588,42.619811 38.72172,0.873401 34.81475,12.070131 -4.09764,10.69633 -29.04069,64.90879 -74.380219,74.43029" />
  <path
     sodipodi:nodetypes="cccccccc"
     inkscape:connector-curvature="0"
     style="fill:#ffb400;fill-opacity:1;stroke:none"
     id="path606"
     d="m 283.85615,66.360809 c -0.0716,5.23259 3.97816,3.171 3.42716,36.000001 0.42846,5.85526 -2.59763,38.76694 3.701,43 12.1365,-13.97739 17.35421,-7.49741 19.647,-19.691 4.3213,-36.458791 -0.55229,-45.160351 -0.49211,-70.408431 61.05773,7.65939 3.9809,49.952081 1.97211,54.310431 39.81879,-16.44819 53.92951,-58.882651 32.533,-71.775001 -24.20335,-14.206602 -60.7334,21.525796 -60.78816,28.564 z" />
  <path
     style="fill:#ffb400;fill-opacity:1;stroke:none"
     d="m 239.33693,75.23418 c -2.82046,4.315633 -10.39649,-18.20433 -13.50563,-24.372048 -8.00867,-15.450543 -14.71199,-5.648271 -18.82259,-2.271649 -6.16473,4.625499 -7.61323,6.579387 -12.44257,14.057147 25.175,51.80263 -18.5286,117.59195 21.667,71.46478 5.082,-6.8 3.90895,-24.99697 3.25295,-38.97897 -2.34219,-26.679353 -2.41712,-14.032592 4.91681,-4.038585 6.10561,7.943143 8.79009,7.953231 16.77753,-4.43694 9.15862,-16.218851 9.36991,-23.82222 9.34853,10.361593 -0.61346,41.894082 -13.70599,59.813662 4.6391,44.588572 13.70269,-11.85174 21.38576,-29.05461 18.40039,-66.838777 -3.72259,-50.053106 -7.77165,-37.163616 -34.23152,0.464877 z"
     id="path607"
     inkscape:connector-curvature="0"
     sodipodi:nodetypes="cccccccccccc" />
  <path
     style="fill:#ffb400;fill-opacity:1;stroke:none"
     d="m 474.70012,39.16647 c -8.76009,0.251378 -28.54471,11.791075 -26.45157,19.165625 -9.66561,60.395015 -36.44782,97.745895 -5.94693,76.339595 10.56408,-6.4 30.55564,-13.64925 30.51562,-15.85625 0.0974,-2.39947 -5.54382,-2.53728 -9.62969,-4.8937 -8.68013,-5.00604 -17.16313,-32.419135 -6.4468,-37.827095 4.41082,-1.851801 7.47002,-9.21169 26.28275,67.452095 13.15198,-21.89318 24.48892,-9.91041 23.9328,-20.20937 0,0 4.03877,5.87786 -28.35775,-82.3521 -0.44292,-1.334098 -3.89843,0.203643 -3.89843,-1.81875 z"
     id="path609"
     inkscape:connector-curvature="0"
     sodipodi:nodetypes="ccccsccccsc" />
  <path
     sodipodi:nodetypes="cccccccccc"
     inkscape:connector-curvature="0"
     style="fill:#ffb400;fill-opacity:1;stroke:none"
     id="path608"
     d="m 379.43331,37.612809 c -3.73491,5.4814 -10.13992,12.81295 -18.33031,13.04211 5.15379,24.02366 -6.60888,75.460581 2.48231,97.305891 8.18164,-34.47084 30.32621,-59.022231 28.155,-42.55 -2.813,24.151 0.20284,55.13284 0.20284,55.13284 6.52728,-15.55992 28.61777,-12.5889 25.86674,-30.72405 -0.48061,-26.13471 17.21321,-73.137481 -4.01711,-77.568501 -6.60896,-0.91784 -10.56331,3.70127 -17.12974,11.252 2.03523,29.59376 -17.51361,40.855691 -10.95278,24.88825 6.12317,-14.94828 2.62312,-65.46176 -6.27695,-50.77854 z" />
  <text
     xml:space="preserve"
     style="font-style:normal;font-weight:normal;font-size:26.5474472px;line-height:125%;font-family:sans-serif;letter-spacing:0px;word-spacing:0px;fill:#ffb400;fill-opacity:1;stroke:none;stroke-width:1px;stroke-linecap:butt;stroke-linejoin:miter;stroke-opacity:1"
     x="478.45462"
     y="62.884579"
     id="text3340"
     sodipodi:linespacing="125%"
     transform="scale(1.0278874,0.9728692)"><tspan
       sodipodi:role="line"
       id="tspan3342"
       x="478.45462"
       y="62.884579">TM</tspan></text>
</svg>
