<?xml version="1.0" encoding="UTF-8" standalone="no"?>
<!-- Created with Sodipodi ("http://www.sodipodi.com/") -->

<svg
   xmlns:dc="http://purl.org/dc/elements/1.1/"
   xmlns:cc="http://creativecommons.org/ns#"
   xmlns:rdf="http://www.w3.org/1999/02/22-rdf-syntax-ns#"
   xmlns:svg="http://www.w3.org/2000/svg"
   xmlns="http://www.w3.org/2000/svg"
   xmlns:sodipodi="http://sodipodi.sourceforge.net/DTD/sodipodi-0.dtd"
   xmlns:inkscape="http://www.inkscape.org/namespaces/inkscape"
   version="1.0"
   width="550.000000pt"
   height="200.000000pt"
   viewBox="0 0 550.000000 200.000000"
   preserveAspectRatio="xMidYMid meet"
   id="svg602"
   sodipodi:version="0.34"
   sodipodi:docname="logo.svg"
   inkscape:version="0.91 r13725"
   inkscape:export-filename="logo.png"
   inkscape:export-xdpi="90"
   inkscape:export-ydpi="90">
  <defs
     id="defs613" />
  <sodipodi:namedview
     id="base"
     showgrid="false"
     inkscape:zoom="0.70710683"
     inkscape:cx="354.9652"
     inkscape:cy="159.61379"
     inkscape:window-width="1440"
     inkscape:window-height="849"
     inkscape:window-x="0"
     inkscape:window-y="-1"
     inkscape:window-maximized="1"
     inkscape:current-layer="svg602"
     showguides="false" />
  <metadata
     id="metadata603">
Created by potrace 1.10, written by Peter Selinger 2001-2011
<rdf:RDF>
  <cc:Work
     rdf:about="">
    <dc:format>image/svg+xml</dc:format>
    <dc:type
       rdf:resource="http://purl.org/dc/dcmitype/StillImage" />
    <dc:title />
  </cc:Work>
</rdf:RDF>
</metadata>
  <path
     sodipodi:nodetypes="ccccccccccccccccccccc"
     inkscape:connector-curvature="0"
     style="fill:#ffb400;fill-opacity:1;stroke:none"
     id="path605"
     d="m 130.44579,131.67578 c -37.818375,33.98559 -53.445223,-15.06479 -76.489486,-17.31497 -8.744,-0.4 0,0 -0.308,-14.06 -0.557243,-16.736421 8.119893,-86.282823 54.469006,-70.074316 21.79036,9.419572 16.47884,39.824482 21.39943,6.043426 7.47438,-45.3724051 -89.97096,-1.628185 -99.326751,51.516879 -2.486471,16.437761 3.660421,11.416818 -7.052685,37.109011 14.636788,6.56838 8.399999,9.2 26.198258,27.87996 62.957788,61.51026 112.181948,-59.517901 81.110228,-21.09999 z m 0.88305,46.23658 c 10.18523,-0.37003 53.35479,-19.80273 60.44247,-56.50255 6.28521,-32.271431 2.29508,-63.606391 -12.267,-79.999001 -2.646,-2.508 -5.608,-2.886 -7.824,-1 -7.24348,9.82185 -16.90971,13.54415 -13.249,24.285 11.26054,28.92914 12.37627,31.390478 3.0862,28.56206 -6.30211,-2.41391 -7.50365,-35.04514 -22.12077,-35.70295 -4.205,0 -11.335,3.497 -11.335,5.56 -3.10625,5.22014 -27.07403,23.36759 -24.19706,21.25689 34.52675,-30.88694 28.3645,31.086441 38.01472,30.846731 6.33902,0.1705 16.40798,-9.35118 19.11296,-12.79458 14.54783,-14.804981 13.3321,53.65993 -29.02685,73.87982" />
  <path
     sodipodi:nodetypes="csccccccc"
     inkscape:connector-curvature="0"
     style="fill:#ffb400;fill-opacity:1;stroke:none"
     id="path606"
     d="m 294.23331,70.590809 c 0,0.314 0.732,0.57 1.627,0.57 1.484,0 1.574,3.171 1.023,36.000001 0.42846,5.85526 -2.59763,38.76694 3.701,43 12.1365,-13.97739 17.35421,-7.49741 19.647,-19.691 4.3213,-36.458791 -0.55229,-45.160351 -0.49211,-70.408431 61.05773,7.65939 12.7809,56.352081 10.77211,60.710431 39.81879,-16.44819 45.12951,-65.282651 23.733,-78.175001 -27.98673,-14.85841 -51.66394,14.2744 -60.011,27.994 z" />
  <path
     sodipodi:nodetypes="ccccccscccscsccccccccccc"
     inkscape:connector-curvature="0"
     style="fill:#ffb400;fill-opacity:1;stroke:none"
     id="path607"
     d="m 192.95731,60.375809 c 13.64131,20.98082 3.64965,65.024341 7.932,92.785001 6.53329,-2.15829 14.39656,-14.58021 20.232,-15 3.882,0 4.407,-2.277 3.751,-16.259 -1.977,-42.099001 -1.962,-40.922001 -0.523,-41.834001 2.781,-1.761 4.854,-0.914 6.314,2.58 2.184,5.227 3.569,20.415001 3.577,39.224001 0.012,27.986 1.382,35.008 5.085,26.067 1.985,-4.793 7.382,-9.593 11.643,-10.357 7.359,-1.318 7.15,-0.355 6.618,-30.573 -0.505,-28.715001 -0.346,-29.848001 4.198,-29.848001 4.262,0 5.491,2.468 5.397,10.838 -0.074,6.582 0.351,31.788001 0.892,52.912001 0.12,4.684 0.519,6.25 1.593,6.25 6.473,-5.20937 5.04905,-9.9546 14.96,-10 6.917,0 8.587,-1.3 6.555,-5.098 -0.637,-1.189 -1.209,-14.358 -1.463,-33.677003 -0.229,-17.448998 -0.678,-33.524998 -0.997,-35.724998 -3.10679,-24.1552 -18.60205,-27.83978 -26.688,-5.643 -10.96584,30.02996 4.39933,-15.91929 -15.61183,-12.70553 -9.7106,2.02741 -18.01735,18.05633 -23.10417,27.34853 -1.25342,-7.23481 -1.68632,-20.30272 -4.13,-26 -0.85772,-2.7297 -1.67085,-3.38745 -3.956,-3.964 -8.14463,1.51423 -17.44466,11.20124 -22.274,18.679 z" />
  <path
     inkscape:export-ydpi="90"
     inkscape:export-xdpi="90"
     inkscape:export-filename="logo.png"
     sodipodi:nodetypes="cccsccccc"
     inkscape:connector-curvature="0"
     style="fill:#ffb400;fill-opacity:1;stroke:none"
     id="path609"
     d="m 450.51658,56.211779 c 1.13438,31.19502 -48.08093,116.362961 12.81996,73.356661 2.10647,-1.67753 15.35568,-5.24916 15.31566,-7.45616 0.0974,-2.39947 -8.93769,0.81244 -12.63038,0.90699 -25.79844,0.6606 -15.92908,-46.636611 -4.01275,-53.244571 21.60494,-11.0317 29.51273,50.845361 23.0485,78.268951 13.15199,-21.89318 28.28913,-11.11109 27.73301,-21.41005 -0.22294,-40.126381 -3.52643,-57.737431 -34.52295,-86.567401 -5.76225,-6.31519 -30.32723,7.06921 -27.75105,16.14558 z" />
  <path
     sodipodi:nodetypes="cccccccccc"
     inkscape:connector-curvature="0"
     style="fill:#ffb400;fill-opacity:1;stroke:none"
     id="path608"
     d="m 389.03331,42.412809 c -3.73491,5.4814 -10.13992,12.81295 -18.33031,13.04211 5.15379,24.02366 -6.60888,75.460581 2.48231,97.305891 8.18164,-34.47084 30.32621,-59.022231 28.155,-42.55 -2.813,24.151 0.20284,55.13284 0.20284,55.13284 6.52728,-15.55992 29.41777,-17.3889 25.86674,-30.72405 -4.48061,-21.33471 17.21321,-73.137481 -4.01711,-77.568501 -6.60896,-0.91784 -12.36331,6.30127 -19.92974,10.652 9.17493,26.07244 -14.71361,41.455691 -8.15278,25.48825 6.12317,-14.94828 2.62312,-65.46176 -6.27695,-50.77854 z" />
  <text
     xml:space="preserve"
     style="font-style:normal;font-weight:normal;font-size:26.5474472px;line-height:125%;font-family:sans-serif;letter-spacing:0px;word-spacing:0px;fill:#ffb400;fill-opacity:1;stroke:none;stroke-width:1px;stroke-linecap:butt;stroke-linejoin:miter;stroke-opacity:1"
     x="483.58029"
     y="56.388744"
     id="text3340"
     sodipodi:linespacing="125%"
     transform="scale(1.0278874,0.9728692)"><tspan
       sodipodi:role="line"
       id="tspan3342"
       x="483.58029"
       y="56.388744">TM</tspan></text>
</svg>
